<svg xmlns="http://www.w3.org/2000/svg" version="1.1" xmlns:xlink="http://www.w3.org/1999/xlink" xmlns:svgjs="http://svgjs.dev/svgjs" width="32" height="32"><svg width="32" height="32" viewBox="0 0 8.467 8.467" xmlns="http://www.w3.org/2000/svg"><path d="M.122 3.137h1.314v.26H.431v.675h.907v.26H.431v1.093h-.31z" style="font-size:3.13778px;line-height:1.25;stroke-width:.588335" aria-label="F"></path><path d="M2.4 3.532v.588h.588v.18h-.587v.587h-.177v-.588h-.588v-.18h.588v-.587z" style="font-size:2.16064px;line-height:1.25;stroke-width:.405121" aria-label="+"></path><path d="M3.226 3.09h.46l.584 1.556.587-1.556h.461v2.287h-.301V3.368l-.59 1.57h-.311l-.59-1.57v2.01h-.3z" style="font-size:3.13778px;line-height:1.25;stroke-width:.588335" aria-label="M"></path><path d="M7.317 2.87h1.449v.19h-1.45zm0 .46h1.449v.193h-1.45z" style="font-size:2.31512px;line-height:1.25;stroke-width:.434085" transform="scale(.75697 1.32106)" aria-label="="></path><path d="M6.922 3.042h.309v2.027h1.114v.26H6.922z" style="font-size:3.13778px;line-height:1.25;stroke-width:.588335" aria-label="L"></path></svg><style>@media (prefers-color-scheme: light) { :root { filter: none; } }
@media (prefers-color-scheme: dark) { :root { filter: none; } }
</style></svg>